# xmcd
#
# Track frame offsets: 
#        150
#        13527
#        28175
#        47852
#        63690
#        79462
#        92212
#        135817
#        148677
#        164755
#        180562
#        192282
#        214525
#        252452
#
# Disc length: 3564 seconds
#
# Revision: 1
# Processed by: cddbd v1.5.2PL0 Copyright (c) Steve Scherf et al.
# Submitted via: ExactAudioCopy v0.99pb5
#
DISCID=cc0dea0e
DTITLE=James Blood Ulmer - Memphis Blood: The Sun Sessions
DYEAR=2001
DGENRE=Blues
TTITLE0=Spoonful
TTITLE1=I Want to be Loved
TTITLE2=Little Red Rooster
TTITLE3=Dimples
TTITLE4=I Just Want to Make Love to You
TTITLE5=Evil
TTITLE6=Death Letter
TTITLE7=Fattening Frogs for Snakes
TTITLE8=Money
TTITLE9=I Love the Life I Live
TTITLE10=Too Lazy to Work, Too Nervous to Steal
TTITLE11=Double Trouble
TTITLE12=I Asked for Water (She Gave Me Gasoline)
TTITLE13=Back Door Man
EXTD=
EXTT0=
EXTT1=
EXTT2=
EXTT3=
EXTT4=
EXTT5=
EXTT6=
EXTT7=
EXTT8=
EXTT9=
EXTT10=
EXTT11=
EXTT12=
EXTT13=
PLAYORDER=
